<svg width="36" height="36" viewBox="0 0 36 36" fill="none" xmlns="http://www.w3.org/2000/svg">
<path d="M15.9713 13.3104C16.1147 13.501 16.1818 13.7625 16.1721 14.096H14.397C14.4034 13.9483 14.4265 13.8092 14.4657 13.6788C14.5049 13.5483 14.5613 13.435 14.6354 13.3389C14.7095 13.2428 14.8024 13.1671 14.9141 13.1101C15.0257 13.0538 15.1573 13.0253 15.3082 13.0253C15.6073 13.0253 15.8279 13.1203 15.9713 13.3104Z" fill="#046DB5"/>
<path d="M11.2155 20.1786C11.2155 19.9644 11.1779 19.7882 11.1022 19.6502C11.0265 19.5117 10.9341 19.4102 10.8235 19.3442C10.7135 19.2781 10.598 19.2363 10.4767 19.2191C10.3553 19.2019 10.2307 19.1933 10.1013 19.1933H9.57296V21.2649H10.1298C10.3279 21.2649 10.4938 21.2386 10.6275 21.1849C10.7612 21.1312 10.8708 21.0565 10.9556 20.9604C11.0405 20.8643 11.1049 20.7494 11.1489 20.6157C11.1935 20.482 11.2155 20.3359 11.2155 20.1786Z" fill="#046DB5"/>
<path d="M17.5988 20.4079C17.6493 20.6705 17.6745 20.962 17.6745 21.2831C17.6745 21.5758 17.6482 21.8518 17.5967 22.1116C17.5446 22.3715 17.4555 22.5987 17.3298 22.7936C17.2036 22.9885 17.0388 23.1426 16.8342 23.2559C16.6296 23.3692 16.3746 23.4256 16.0696 23.4256C15.7646 23.4256 15.5111 23.3767 15.3098 23.2774C15.1084 23.178 14.9484 23.0341 14.8287 22.8457C14.7089 22.6567 14.6241 22.429 14.5736 22.1632C14.5231 21.8974 14.4979 21.5972 14.4979 21.2638C14.4979 20.9776 14.5237 20.7064 14.5758 20.4498C14.6279 20.1931 14.717 19.9692 14.8426 19.7775C14.9688 19.5858 15.1337 19.4322 15.3382 19.3173C15.5428 19.203 15.7979 19.1455 16.1029 19.1455C16.4046 19.1455 16.6565 19.1965 16.8578 19.2985C17.0592 19.4011 17.2203 19.5455 17.3416 19.7329C17.463 19.9203 17.5484 20.1453 17.5988 20.4079Z" fill="#046DB5"/>
<path fill-rule="evenodd" clip-rule="evenodd" d="M26.0451 27.9043H4.5V13.014C4.5 9.96892 6.94223 7.5 9.95492 7.5H26.0451C29.0578 7.5 31.5 9.96838 31.5 13.014V22.3892C31.5 25.4348 29.0578 27.9043 26.0451 27.9043ZM17.2267 14.757C17.2912 14.6877 17.3234 14.5803 17.3234 14.4359V14.2447C17.3234 13.9494 17.2858 13.6755 17.2101 13.4237C17.1349 13.1719 17.0168 12.9544 16.8562 12.7702C16.6957 12.5861 16.4906 12.4416 16.2403 12.338C15.9901 12.2344 15.6889 12.1828 15.3366 12.1828C15.0032 12.1828 14.7036 12.2376 14.4378 12.3477C14.172 12.4577 13.9465 12.6177 13.7607 12.8272C13.5749 13.0366 13.4337 13.2911 13.3359 13.5918C13.2388 13.8925 13.1899 14.2297 13.1899 14.6039C13.1899 14.997 13.2361 15.3401 13.329 15.6327C13.4219 15.9254 13.5625 16.1681 13.7515 16.3598C13.9406 16.552 14.1757 16.6954 14.4571 16.7899C14.739 16.8844 15.0671 16.9316 15.4413 16.9316C15.6491 16.9316 15.8441 16.9182 16.0266 16.8914C16.2092 16.8645 16.3708 16.8328 16.5126 16.7969C16.6538 16.7609 16.7703 16.7238 16.8616 16.6863C16.9529 16.6487 17.0087 16.6181 17.0291 16.596C17.0495 16.574 17.0656 16.5515 17.0785 16.5279C17.0914 16.5042 17.1005 16.4752 17.107 16.4409C17.1129 16.4065 17.1177 16.3646 17.1209 16.3158C17.1242 16.2669 17.1258 16.2084 17.1258 16.1391C17.1258 16.0607 17.1236 15.9952 17.1188 15.9431C17.1145 15.891 17.1054 15.8508 17.093 15.8223C17.0801 15.7944 17.0646 15.775 17.0458 15.7638C17.027 15.753 17.0033 15.7471 16.9749 15.7471C16.9276 15.7471 16.8664 15.7622 16.7907 15.7922C16.715 15.8223 16.62 15.8556 16.505 15.8916C16.3901 15.9275 16.2543 15.9603 16.097 15.9904C15.9396 16.0204 15.7571 16.0355 15.5493 16.0355C15.3447 16.0355 15.1691 16.0086 15.0231 15.9549C14.877 15.9018 14.7573 15.8239 14.6644 15.7219C14.5715 15.6199 14.5038 15.4953 14.4614 15.3492C14.419 15.2032 14.3975 15.0399 14.3975 14.8606H16.9599C17.0731 14.8606 17.1623 14.8262 17.2267 14.757ZM12.254 16.746C12.2728 16.7224 12.2824 16.695 12.2824 16.6633L12.283 14.0634C12.283 13.7584 12.2567 13.4969 12.203 13.28C12.1493 13.0625 12.0623 12.873 11.9409 12.7108C11.8196 12.5487 11.6606 12.4209 11.4641 12.3264C11.2676 12.2319 11.026 12.1846 10.7398 12.1846C10.4788 12.1846 10.2275 12.248 9.98695 12.3736C9.7464 12.4998 9.5096 12.6883 9.27656 12.9401V12.4536C9.27656 12.4225 9.26851 12.3951 9.25294 12.3715C9.23737 12.3478 9.21106 12.328 9.17508 12.3124C9.13857 12.2968 9.08755 12.2855 9.02151 12.2775C8.95546 12.2694 8.87224 12.2651 8.77129 12.2651C8.67356 12.2651 8.59248 12.2694 8.52859 12.278C8.46361 12.2855 8.41099 12.2974 8.37018 12.3129C8.32937 12.3285 8.30092 12.3484 8.28534 12.372C8.26977 12.3956 8.26172 12.4225 8.26172 12.4542V16.6639C8.26172 16.695 8.27138 16.7229 8.29018 16.7466C8.30897 16.7697 8.34119 16.7895 8.38683 16.8051C8.43247 16.8207 8.49261 16.8325 8.56832 16.8405C8.64349 16.8486 8.74015 16.8513 8.85666 16.8513C8.97318 16.8513 9.06876 16.8481 9.14447 16.84C9.21965 16.8325 9.28032 16.8201 9.32596 16.8046C9.3716 16.789 9.40382 16.7697 9.42262 16.746C9.44141 16.7224 9.45107 16.695 9.45107 16.6633V13.8653C9.61753 13.6548 9.77808 13.4942 9.93219 13.3842C10.0863 13.2741 10.2393 13.2182 10.3902 13.2182C10.5094 13.2182 10.6141 13.2413 10.7038 13.287C10.7935 13.3326 10.8665 13.397 10.9234 13.4803C10.9803 13.564 11.0233 13.6639 11.0533 13.7804C11.0829 13.8964 11.0979 14.057 11.0979 14.2615V16.6633C11.0979 16.6945 11.1076 16.7224 11.1264 16.746C11.1452 16.7691 11.1768 16.789 11.2209 16.8046C11.2649 16.8201 11.325 16.8319 11.4024 16.84C11.4792 16.8475 11.5758 16.8513 11.6923 16.8513C11.8056 16.8513 11.9007 16.8481 11.978 16.84C12.0548 16.8325 12.1154 16.8201 12.1595 16.8046C12.2035 16.789 12.2352 16.7697 12.254 16.746ZM24.6818 12.4443C24.6818 12.4787 24.677 12.5216 24.6678 12.5721C24.6582 12.6226 24.641 12.6951 24.6158 12.789L23.4924 16.5971C23.4769 16.6508 23.4565 16.6943 23.4312 16.7271C23.406 16.7604 23.3673 16.7856 23.3158 16.8049C23.2637 16.8237 23.1901 16.8366 23.094 16.8425C22.9979 16.8484 22.8728 16.8522 22.7187 16.8522C22.5646 16.8522 22.4389 16.8484 22.3412 16.8409C22.2435 16.8328 22.1672 16.82 22.1125 16.8012C22.0577 16.7824 22.0174 16.7561 21.9922 16.7228C21.967 16.6895 21.9482 16.6476 21.9358 16.5977L21.2281 14.0396L21.2184 13.9977L21.2088 14.0396L20.5574 16.5977C20.5451 16.6514 20.5268 16.6948 20.5032 16.7276C20.4796 16.7609 20.4393 16.7861 20.3829 16.8055C20.3266 16.8242 20.2492 16.8371 20.1515 16.843C20.0538 16.8495 19.9281 16.8527 19.774 16.8527C19.6167 16.8527 19.49 16.849 19.3939 16.8414C19.2978 16.8334 19.2226 16.8205 19.1673 16.8017C19.112 16.7829 19.0722 16.7566 19.047 16.7233C19.0218 16.69 19.003 16.6481 18.9906 16.5982L17.877 12.7901C17.8485 12.6988 17.8308 12.6269 17.8227 12.5753C17.8147 12.5232 17.8109 12.4797 17.8109 12.4454C17.8109 12.4137 17.8195 12.3869 17.8367 12.3632C17.8539 12.3396 17.8856 12.3208 17.9312 12.3063C17.9768 12.2924 18.0381 12.2816 18.1154 12.2752C18.1916 12.2682 18.2888 12.265 18.4048 12.265C18.5304 12.265 18.633 12.2682 18.7114 12.2746C18.7898 12.2811 18.8515 12.2924 18.8956 12.3079C18.9396 12.3235 18.9702 12.3444 18.9874 12.3713C19.0046 12.3981 19.018 12.4303 19.0277 12.4685L19.8632 15.5592L19.8728 15.6156L19.8825 15.5592L20.6659 12.4685C20.675 12.4309 20.6901 12.3981 20.7105 12.3713C20.7309 12.3444 20.7615 12.3235 20.8023 12.3079C20.8431 12.2924 20.9006 12.2805 20.9747 12.2746C21.0488 12.2682 21.1438 12.265 21.2603 12.265C21.3768 12.265 21.4713 12.2693 21.5433 12.2773C21.6158 12.2854 21.6732 12.2961 21.7157 12.3106C21.7581 12.3246 21.7881 12.3434 21.8053 12.367C21.8225 12.3906 21.8359 12.4185 21.8456 12.4497L22.6854 15.5646L22.6994 15.6161L22.709 15.5597L23.5112 12.469C23.5177 12.4314 23.53 12.3987 23.5488 12.3718C23.5676 12.345 23.5993 12.324 23.6433 12.3085C23.6874 12.2929 23.747 12.2811 23.8227 12.2752C23.8984 12.2682 23.9945 12.265 24.1105 12.265C24.227 12.265 24.322 12.2682 24.3961 12.2746C24.4702 12.2811 24.5282 12.2913 24.5707 12.3058C24.6131 12.3203 24.6421 12.3385 24.6582 12.3627C24.6737 12.3858 24.6818 12.4126 24.6818 12.4443ZM28.1967 16.1069C28.2864 15.9243 28.3309 15.7133 28.3309 15.4743C28.3309 15.2821 28.3009 15.1162 28.2434 14.9777C28.1838 14.8375 28.1054 14.7172 28.0077 14.6163C27.91 14.5153 27.7988 14.4305 27.6748 14.3612C27.5507 14.292 27.4246 14.2318 27.2973 14.1797C27.17 14.1282 27.0439 14.0804 26.9198 14.0364C26.7953 13.9924 26.6846 13.9451 26.5869 13.8946C26.4897 13.8442 26.4108 13.7856 26.3512 13.7196C26.2916 13.6535 26.2615 13.5719 26.2615 13.4742C26.2615 13.4114 26.2739 13.3523 26.2991 13.2975C26.3243 13.2422 26.3619 13.1939 26.4124 13.1531C26.4623 13.1123 26.5268 13.0806 26.6057 13.0586C26.6841 13.036 26.777 13.0258 26.8839 13.0258C27.0347 13.0258 27.169 13.0425 27.2871 13.0752C27.4052 13.108 27.5089 13.1434 27.5985 13.181C27.6882 13.2186 27.7628 13.254 27.8224 13.2873C27.882 13.3206 27.9261 13.3373 27.9545 13.3373C27.9798 13.3373 28.0018 13.3319 28.0206 13.3206C28.0394 13.3099 28.0539 13.2884 28.0652 13.2567C28.0764 13.2256 28.0839 13.1837 28.0888 13.13C28.0936 13.0763 28.0958 13.007 28.0958 12.9222C28.0958 12.8497 28.0936 12.789 28.0888 12.7402C28.0839 12.6913 28.0786 12.65 28.0721 12.6172C28.0657 12.5845 28.056 12.556 28.0437 12.5324C28.0308 12.5087 28.0098 12.4851 27.9798 12.4615C27.9497 12.4379 27.9003 12.4099 27.831 12.3767C27.7618 12.3434 27.6769 12.3128 27.576 12.2843C27.4756 12.2558 27.3628 12.2327 27.2388 12.214C27.1147 12.1952 26.9864 12.1855 26.8543 12.1855C26.5896 12.1855 26.3517 12.2183 26.1391 12.2843C25.927 12.3509 25.7466 12.4438 25.5989 12.5635C25.4507 12.6833 25.3374 12.8266 25.259 12.9952C25.1801 13.1633 25.1409 13.348 25.1409 13.5494C25.1409 13.7475 25.1704 13.9172 25.2284 14.0589C25.2869 14.2007 25.3643 14.322 25.4598 14.423C25.5554 14.5239 25.6639 14.6088 25.7852 14.678C25.9061 14.7473 26.0306 14.808 26.1579 14.8617C26.2851 14.9148 26.4092 14.9642 26.5305 15.0083C26.6519 15.0523 26.7604 15.0996 26.8565 15.15C26.9526 15.2005 27.0294 15.259 27.0879 15.3267C27.1464 15.3943 27.1754 15.4749 27.1754 15.5694C27.1754 15.651 27.1598 15.7235 27.1282 15.7863C27.097 15.8491 27.0503 15.9018 26.9891 15.9426C26.9279 15.9834 26.8554 16.0151 26.7722 16.0371C26.6884 16.0591 26.5934 16.0698 26.4865 16.0698C26.3168 16.0698 26.1649 16.05 26.0312 16.0092C25.8975 15.9683 25.7799 15.9243 25.6795 15.8771C25.5791 15.8298 25.4947 15.7863 25.4271 15.7471C25.3594 15.7079 25.3079 15.6886 25.2735 15.6886C25.2451 15.6886 25.2214 15.694 25.2026 15.7047C25.1839 15.7154 25.1677 15.7375 25.1554 15.7707C25.1425 15.8035 25.1334 15.8475 25.1269 15.9028C25.1205 15.9576 25.1173 16.0312 25.1173 16.1224C25.1173 16.261 25.1269 16.3652 25.1457 16.436C25.1645 16.5069 25.1914 16.5585 25.2257 16.5917C25.2606 16.6245 25.3154 16.6605 25.3911 16.6981C25.4663 16.7357 25.5608 16.7727 25.6741 16.8087C25.7874 16.8447 25.9152 16.8747 26.0586 16.8983C26.2014 16.922 26.3517 16.9338 26.5091 16.9338C26.7706 16.9338 27.0127 16.9026 27.2361 16.8414C27.4595 16.7797 27.6528 16.6879 27.8165 16.5654C27.9803 16.4425 28.107 16.2894 28.1967 16.1069ZM12.5133 20.0895C12.5133 20.4326 12.4596 20.7354 12.3528 20.9996C12.2459 21.2638 12.0902 21.4866 11.8856 21.6676C11.681 21.8485 11.4303 21.9865 11.1328 22.081C10.8353 22.1755 10.4858 22.2228 10.0831 22.2228H9.5735V24.1714C9.5735 24.2031 9.5633 24.231 9.54289 24.2562C9.52249 24.2815 9.48866 24.3024 9.44141 24.318C9.39416 24.3336 9.33133 24.3465 9.2524 24.3556C9.17401 24.3647 9.07306 24.369 8.95063 24.369C8.83089 24.369 8.73102 24.3647 8.65101 24.3556C8.571 24.3459 8.50711 24.3336 8.45986 24.318C8.4126 24.3024 8.37985 24.2815 8.36106 24.2562C8.34226 24.231 8.3326 24.2025 8.3326 24.1714V18.6784C8.3326 18.5307 8.37126 18.4201 8.44804 18.346C8.52483 18.2719 8.62631 18.2348 8.7525 18.2348H10.1921C10.3365 18.2348 10.4745 18.2407 10.605 18.2515C10.7355 18.2628 10.8923 18.2864 11.0743 18.3224C11.2569 18.3583 11.4416 18.4255 11.629 18.5232C11.8164 18.6209 11.9758 18.7439 12.1079 18.8931C12.24 19.0424 12.341 19.2175 12.4097 19.4172C12.479 19.6164 12.5133 19.8409 12.5133 20.0895ZM18.7882 22.5761C18.9138 22.1766 18.9767 21.7234 18.9767 21.2171C18.9767 20.6882 18.9165 20.2302 18.7946 19.8419C18.6733 19.4532 18.4939 19.1315 18.2566 18.8765C18.0193 18.6214 17.7234 18.4324 17.3695 18.31C17.0157 18.187 16.6071 18.1264 16.1448 18.1264C15.6604 18.1264 15.2352 18.1999 14.8684 18.3476C14.5022 18.4958 14.1945 18.7084 13.9459 18.9855C13.6973 19.2626 13.5099 19.5982 13.3843 19.9928C13.2581 20.3875 13.1953 20.8321 13.1953 21.3261C13.1953 21.8641 13.2543 22.3296 13.3725 22.7232C13.4906 23.1163 13.6678 23.4401 13.9035 23.6951C14.1392 23.9502 14.4346 24.1397 14.7884 24.2638C15.1423 24.3883 15.5568 24.4506 16.032 24.4506C16.5136 24.4506 16.9373 24.3771 17.304 24.231C17.6702 24.0844 17.9779 23.8723 18.2265 23.5936C18.4751 23.315 18.6625 22.9756 18.7882 22.5761ZM23.6466 22.5101C23.6466 22.8312 23.5869 23.1131 23.4672 23.3552C23.3475 23.5974 23.1858 23.7993 22.9813 23.9615C22.7767 24.1236 22.5377 24.2455 22.2639 24.3277C21.99 24.4093 21.6974 24.4506 21.386 24.4506C21.1749 24.4506 20.9795 24.4329 20.7985 24.398C20.6176 24.3636 20.4581 24.3218 20.3196 24.2734C20.181 24.2246 20.0656 24.1736 19.9727 24.1204C19.8798 24.0667 19.8132 24.0194 19.7719 23.9786C19.7311 23.9378 19.7021 23.8788 19.6844 23.8014C19.6672 23.7241 19.6586 23.6135 19.6586 23.4691C19.6586 23.3713 19.6618 23.2897 19.6677 23.2237C19.6742 23.1576 19.6844 23.1039 19.6983 23.0631C19.7123 23.0223 19.7316 22.9928 19.7547 22.9756C19.7783 22.9584 19.8057 22.9498 19.8374 22.9498C19.8814 22.9498 19.9437 22.9756 20.0237 23.0277C20.1037 23.0798 20.2068 23.1367 20.333 23.1995C20.4586 23.2623 20.609 23.3203 20.7835 23.3719C20.958 23.424 21.1604 23.4503 21.3897 23.4503C21.5406 23.4503 21.6759 23.432 21.7957 23.3955C21.9154 23.3595 22.0169 23.3085 22.1001 23.2425C22.1833 23.1764 22.2472 23.0948 22.2913 22.9971C22.3353 22.8994 22.3573 22.7904 22.3573 22.6712C22.3573 22.5326 22.3197 22.414 22.244 22.3152C22.1683 22.2158 22.0701 22.1278 21.9492 22.051C21.8279 21.9742 21.6904 21.9017 21.5363 21.834C21.3822 21.7664 21.2233 21.695 21.0595 21.6198C20.8957 21.5441 20.7368 21.4582 20.5827 21.3626C20.4286 21.2665 20.2911 21.1516 20.1698 21.0179C20.0484 20.8842 19.9502 20.7263 19.875 20.5437C19.7993 20.3612 19.7617 20.1421 19.7617 19.887C19.7617 19.5944 19.8159 19.3377 19.9244 19.1154C20.0328 18.8937 20.1794 18.7095 20.3631 18.5634C20.5472 18.4169 20.7642 18.3073 21.0144 18.2354C21.2646 18.1629 21.5299 18.1274 21.8096 18.1274C21.9541 18.1274 22.099 18.1376 22.244 18.1602C22.389 18.1822 22.5238 18.2128 22.65 18.2504C22.7756 18.288 22.8873 18.3299 22.985 18.3771C23.0827 18.4244 23.1472 18.4641 23.1783 18.4958C23.21 18.5275 23.2309 18.5532 23.2422 18.5753C23.2535 18.5973 23.2626 18.6268 23.2707 18.6628C23.2787 18.6988 23.2841 18.7444 23.2873 18.7997C23.2906 18.855 23.2922 18.9232 23.2922 19.0054C23.2922 19.0966 23.29 19.1729 23.2852 19.2363C23.2803 19.2991 23.2728 19.3517 23.2616 19.3925C23.2503 19.4333 23.2347 19.4628 23.2143 19.4816C23.1939 19.5004 23.1665 19.5101 23.1316 19.5101C23.0972 19.5101 23.0419 19.4881 22.9662 19.4441C22.8905 19.4 22.7982 19.3522 22.6875 19.3001C22.5775 19.2481 22.4502 19.2008 22.3052 19.1584C22.1603 19.116 22.0019 19.0945 21.8284 19.0945C21.6931 19.0945 21.575 19.1111 21.4746 19.1444C21.3736 19.1772 21.2899 19.2228 21.2222 19.2814C21.1545 19.3393 21.1041 19.4092 21.0713 19.4913C21.0386 19.5729 21.0219 19.6599 21.0219 19.7512C21.0219 19.8865 21.059 20.0036 21.1325 20.1024C21.2066 20.2017 21.3054 20.2898 21.43 20.3665C21.554 20.4439 21.6953 20.5158 21.8526 20.5835C22.0099 20.6511 22.1705 20.7231 22.3337 20.7983C22.4975 20.874 22.658 20.9593 22.8148 21.0555C22.9721 21.1516 23.1123 21.2665 23.2347 21.4002C23.3577 21.5339 23.4565 21.6912 23.5322 21.8722C23.609 22.052 23.6466 22.2647 23.6466 22.5101ZM28.5597 18.9774C28.5677 18.913 28.5715 18.8351 28.5715 18.7439C28.5715 18.6499 28.5677 18.5699 28.5597 18.5038C28.5516 18.4378 28.5398 18.3846 28.5242 18.3454C28.5087 18.3062 28.4888 18.2778 28.4652 18.2606C28.4416 18.2434 28.4158 18.2343 28.3873 18.2343H24.0831C24.052 18.2343 24.0251 18.2434 24.0031 18.2606C23.9811 18.2778 23.9617 18.3062 23.9462 18.3454C23.9306 18.3846 23.9188 18.4378 23.9107 18.5038C23.9027 18.5699 23.8989 18.6494 23.8989 18.7439C23.8989 18.8346 23.9027 18.913 23.9107 18.9774C23.9188 19.0419 23.9306 19.094 23.9462 19.1332C23.9623 19.1724 23.9811 19.2019 24.0031 19.2207C24.0251 19.2395 24.0514 19.2491 24.0831 19.2491H25.6123V24.1709C25.6123 24.202 25.6225 24.2305 25.6429 24.2557C25.6634 24.2809 25.6972 24.3019 25.7444 24.3175C25.7917 24.333 25.8556 24.3454 25.9356 24.355C26.0156 24.3642 26.1155 24.3685 26.2352 24.3685C26.3549 24.3685 26.4548 24.3642 26.5348 24.355C26.6148 24.3459 26.6787 24.333 26.726 24.3175C26.7732 24.3019 26.8071 24.2809 26.8275 24.2557C26.8479 24.2305 26.8581 24.2025 26.8581 24.1709V19.2491H28.3873C28.4158 19.2491 28.4416 19.2395 28.4652 19.2207C28.4888 19.2019 28.5087 19.1724 28.5242 19.1332C28.5398 19.094 28.5516 19.0419 28.5597 18.9774Z" fill="#046DB5"/>
</svg>
